<svg xmlns="http://www.w3.org/2000/svg" viewBox="0 0 32 32" width="32" height="32">
  <defs>
    <linearGradient id="gear-grad" x1="0%" y1="0%" x2="100%" y2="100%">
      <stop offset="0%" stop-color="#00a86b"/>
      <stop offset="100%" stop-color="#006847"/>
    </linearGradient>
  </defs>
  <rect width="32" height="32" rx="6" fill="#0d0d0d"/>
  <g transform="translate(16,16)">
    <!-- Gear teeth (8 teeth) -->
    <path d="M-2,-11 L2,-11 L2.5,-9 L4,-9 L5,-11 L7,-10 L6,-8 L7,-7 L9,-7.5 L10,-5.5 L8,-5 L8,-4 L11,-2 L11,2 L8,2.5 L8,4 L10,5.5 L9,7.5 L7,7 L6,8 L7,10 L5,11 L4,9 L2.5,9 L2,11 L-2,11 L-2.5,9 L-4,9 L-5,11 L-7,10 L-6,8 L-7,7 L-9,7.5 L-10,5.5 L-8,5 L-8,4 L-11,2 L-11,-2 L-8,-2.5 L-8,-4 L-10,-5.5 L-9,-7.5 L-7,-7 L-6,-8 L-7,-10 L-5,-11 L-4,-9 L-2.5,-9 Z"
          fill="url(#gear-grad)"/>
    <!-- Center hole -->
    <circle cx="0" cy="0" r="4" fill="#0d0d0d"/>
    <!-- Inner ring accent -->
    <circle cx="0" cy="0" r="3" fill="none" stroke="#00ff9d" stroke-width="0.5" opacity="0.6"/>
  </g>
</svg>
